<svg width="28" height="28" viewBox="0 0 28 28" fill="none" xmlns="http://www.w3.org/2000/svg">
<path d="M22 7.5C22 8.32843 21.3284 9 20.5 9C19.6716 9 19 8.32843 19 7.5C19 6.67157 19.6716 6 20.5 6C21.3284 6 22 6.67157 22 7.5Z" fill="black"/>
<path fill-rule="evenodd" clip-rule="evenodd" d="M14 20C17.3137 20 20 17.3137 20 14C20 10.6863 17.3137 8 14 8C10.6863 8 8 10.6863 8 14C8 17.3137 10.6863 20 14 20ZM14 18C16.2091 18 18 16.2091 18 14C18 11.7909 16.2091 10 14 10C11.7909 10 10 11.7909 10 14C10 16.2091 11.7909 18 14 18Z" fill="black"/>
<path fill-rule="evenodd" clip-rule="evenodd" d="M2 8C2 4.68629 4.68629 2 8 2H20C23.3137 2 26 4.68629 26 8V20C26 23.3137 23.3137 26 20 26H8C4.68629 26 2 23.3137 2 20V8ZM8 4H20C22.2091 4 24 5.79086 24 8V20C24 22.2091 22.2091 24 20 24H8C5.79086 24 4 22.2091 4 20V8C4 5.79086 5.79086 4 8 4Z" fill="black"/>
</svg>
