<svg width="17" height="17" viewBox="0 0 17 17" fill="none" xmlns="http://www.w3.org/2000/svg">
<g clip-path="url(#clip0_1005_394)">
<path d="M8.02296 0.84196C8.17304 0.386013 8.82694 0.386013 8.97703 0.84196L10.6398 5.89057C10.7069 6.09448 10.8995 6.23253 11.1168 6.23253H16.4974C16.9834 6.23253 17.1854 6.846 16.7922 7.12778L12.4393 10.248C12.2635 10.374 12.1898 10.5974 12.2571 10.8013L13.9197 15.8499C14.0699 16.3059 13.541 16.685 13.1478 16.4032L8.79484 13.283C8.61897 13.157 8.38101 13.157 8.20515 13.283L3.85216 16.4032C3.45903 16.685 2.9301 16.3059 3.08026 15.8499L4.74295 10.8013C4.81011 10.5974 4.73654 10.374 4.56073 10.248L0.207728 7.12778C-0.185386 6.846 0.0166534 6.23253 0.502575 6.23253H5.88317C6.10048 6.23253 6.29308 6.09448 6.36024 5.89057L8.02296 0.84196Z" fill="black"/>
</g>
<defs>
<clipPath id="clip0_1005_394">
<rect width="17" height="17" fill="white"/>
</clipPath>
</defs>
</svg>
