<svg width="28" height="28" viewBox="0 0 28 28" fill="none" xmlns="http://www.w3.org/2000/svg">
<path d="M14.9825 21C7.46596 21 3.17864 15.7447 3 7H6.76515C6.88882 13.4184 9.66459 16.1371 11.8632 16.6977V7H15.4085V12.5355C17.5796 12.2973 19.8607 9.77477 20.6302 7H24.1755C23.8855 8.43908 23.3075 9.80165 22.4776 11.0025C21.6477 12.2033 20.5837 13.2166 19.3523 13.979C20.7269 14.6756 21.941 15.6615 22.9145 16.8717C23.888 18.082 24.5988 19.489 25 21H21.0974C20.7373 19.6876 20.0054 18.5128 18.9934 17.6228C17.9814 16.7328 16.7343 16.1673 15.4085 15.997V21H14.9825V21Z" fill="black"/>
</svg>
