<svg width="28" height="28" viewBox="0 0 28 28" fill="none" xmlns="http://www.w3.org/2000/svg">
<path fill-rule="evenodd" clip-rule="evenodd" d="M5.26249 21.0568C4.87023 20.9408 4.51232 20.7343 4.21896 20.4549C3.9256 20.1754 3.7054 19.8312 3.57695 19.4512C2.84292 17.4874 2.62543 9.28693 4.03911 7.66807C4.50961 7.14145 5.17389 6.81722 5.88777 6.76576C9.68024 6.36768 21.3975 6.42076 22.7432 6.89845C23.1217 7.01832 23.4675 7.22026 23.7547 7.48912C24.0419 7.75799 24.263 8.08681 24.4015 8.45096C25.2035 10.4812 25.2307 17.8589 24.2928 19.8095C24.044 20.3173 23.6275 20.7285 23.1102 20.9772C21.6965 21.6672 7.13833 21.6539 5.26249 21.0568V21.0568ZM11.2842 17.2087L18.0808 13.7587L11.2842 10.2821V17.2087Z" fill="black"/>
</svg>
