<svg width="320" height="34" viewBox="0 0 320 34" fill="none" xmlns="http://www.w3.org/2000/svg">
<path d="M288.124 2.86969C288.136 3.04452 288.107 3.21974 288.04 3.38187L286.429 7.29276H274.762C274.21 7.2933 273.671 7.4644 273.22 7.78262C272.768 8.10085 272.426 8.55065 272.241 9.07044C272.039 9.6253 272.027 10.2312 272.206 10.7939C272.384 11.3565 272.744 11.8443 273.23 12.1814L278.727 15.9244C279.874 16.7008 280.729 17.8371 281.157 19.1536C281.585 20.4701 281.562 21.8916 281.09 23.1931L280.447 25.0004C279.604 27.3214 278.065 29.3259 276.038 30.74C274.012 32.1541 271.598 32.9089 269.126 32.9012C265.406 33.0328 261.68 32.8378 257.994 32.3185C257.819 32.2982 257.652 32.2377 257.505 32.142C257.358 32.0462 257.235 31.9177 257.146 31.7666C257.057 31.6154 257.004 31.4457 256.991 31.2707C256.979 31.0958 257.007 30.9203 257.074 30.7581L258.765 26.6695H269.641C270.292 26.6641 270.927 26.4584 271.458 26.0802C271.988 25.7021 272.389 25.1699 272.607 24.556C272.848 23.8912 272.86 23.1651 272.641 22.4927C272.423 21.8202 271.986 21.2396 271.401 20.8426L266.408 17.4453C265.21 16.6307 264.317 15.4418 263.87 14.0652C263.422 12.6887 263.446 11.2027 263.936 9.84076L264.262 8.95193C265.103 6.63568 266.638 4.63456 268.659 3.22087C270.679 1.80717 273.086 1.04957 275.553 1.05113C275.553 1.05113 278.163 0.705473 287.131 1.81158C287.305 1.83473 287.471 1.89742 287.617 1.99482C287.763 2.09222 287.884 2.22174 287.972 2.37341C288.06 2.52508 288.112 2.69486 288.124 2.86969Z" fill="#43A631"/>
<path fill-rule="evenodd" clip-rule="evenodd" d="M128.68 1.00175H115.007L104.131 31.3803C104.071 31.5511 104.053 31.7337 104.078 31.9129C104.103 32.0921 104.171 32.2627 104.275 32.4106C104.38 32.5584 104.518 32.6792 104.679 32.7628C104.839 32.8464 105.018 32.8905 105.199 32.8913H111.546L115.382 22.2253H119.05L119.911 31.8642C119.945 32.1383 120.078 32.3903 120.286 32.5724C120.494 32.7545 120.761 32.8539 121.038 32.8518H127.959L126.832 20.8525C128.971 20.0218 130.888 18.7064 132.433 17.0098C133.977 15.3132 135.105 13.2817 135.73 11.0753C136.141 9.94226 136.272 8.72725 136.114 7.53269C135.956 6.33814 135.513 5.19905 134.822 4.21146C134.131 3.22388 133.212 2.41676 132.143 1.85815C131.074 1.29954 129.887 1.00582 128.68 1.00175ZM127.692 11.3617V11.4308C127.211 12.7772 126.325 13.9418 125.155 14.7642C123.984 15.5866 122.587 16.0265 121.156 16.0231H117.587L120.632 7.21375H124.755C125.255 7.20919 125.749 7.32563 126.194 7.55312C126.639 7.78061 127.022 8.11238 127.31 8.52005C127.599 8.92772 127.784 9.39915 127.851 9.89402C127.917 10.3889 127.863 10.8925 127.692 11.3617Z" fill="#43A631"/>
<path fill-rule="evenodd" clip-rule="evenodd" d="M16.3138 5.13979L1.15687 31.242C1.05489 31.4144 1.00074 31.6107 1.00001 31.8109C0.999277 32.0111 1.05199 32.2078 1.15272 32.3809C1.25344 32.5539 1.39854 32.697 1.57306 32.7954C1.74758 32.8938 1.9452 32.944 2.14558 32.9407H8.12727L12.794 24.9115H20.7728L20.0511 32.9407H27.9904L30.5611 4.30033C30.5978 3.88658 30.5488 3.46971 30.417 3.07574C30.2852 2.68176 30.0736 2.31915 29.7952 2.01055C29.5169 1.70194 29.1779 1.45396 28.7993 1.28209C28.4207 1.11022 28.0107 1.01815 27.5949 1.01163H23.4226C21.9794 1.01728 20.5631 1.40161 19.3155 2.12612C18.0679 2.85064 17.0327 3.88989 16.3138 5.13979ZM21.2573 19.6575H15.8293L22.2065 8.70503L21.2573 19.6575Z" fill="#43A631"/>
<path fill-rule="evenodd" clip-rule="evenodd" d="M226.889 30.452L241.591 5.13979C242.311 3.88845 243.347 2.84826 244.597 2.12366C245.847 1.39906 247.265 1.01555 248.71 1.01163H252.922C253.337 1.01815 253.747 1.11022 254.126 1.28209C254.504 1.45396 254.844 1.70194 255.122 2.01055C255.4 2.31915 255.612 2.68176 255.744 3.07574C255.875 3.46971 255.924 3.88658 255.888 4.30033L253.317 32.9407H245.407L246.03 24.9115H238.071L233.404 32.9407H228.323C228.031 32.9399 227.746 32.8626 227.494 32.7166C227.242 32.5706 227.033 32.3611 226.888 32.109C226.742 31.8569 226.666 31.5712 226.666 31.2803C226.667 30.9895 226.743 30.7038 226.889 30.452ZM241.156 19.6575H246.535L247.484 8.70503L241.156 19.6575Z" fill="#43A631"/>
<path d="M43.6021 1.05113H49.9496C50.1316 1.04973 50.3111 1.09234 50.473 1.17533C50.6349 1.25832 50.7742 1.37922 50.8792 1.5277C50.9841 1.67617 51.0515 1.84781 51.0755 2.02796C51.0996 2.2081 51.0797 2.39139 51.0174 2.56216L42.9298 25.0597C42.8616 25.2508 42.8404 25.4555 42.868 25.6565C42.8957 25.8575 42.9714 26.0489 43.0887 26.2145C43.2061 26.3802 43.3616 26.5151 43.5421 26.6081C43.7227 26.701 43.923 26.7492 44.1261 26.7485H51.5612C51.7432 26.7471 51.9227 26.7897 52.0846 26.8727C52.2465 26.9557 52.3858 27.0765 52.4908 27.225C52.5957 27.3735 52.6631 27.5451 52.6871 27.7253C52.7112 27.9054 52.6913 28.0887 52.629 28.2595L51.3042 31.9531C42.91 33.237 39.756 32.9407 39.756 32.9407C38.8968 32.9404 38.0503 32.7338 37.2877 32.3382C36.5252 31.9426 35.8691 31.3696 35.3748 30.6677C34.8804 29.9657 34.5623 29.1553 34.4472 28.3047C34.3321 27.4542 34.4235 26.5885 34.7136 25.7806L43.6021 1.05113Z" fill="#43A631"/>
<path d="M72.7394 1.05113H66.3919L57.5034 25.7806C57.2133 26.5885 57.1219 27.4542 57.2369 28.3047C57.352 29.1553 57.6701 29.9657 58.1645 30.6677C58.6588 31.3697 59.315 31.9426 60.0775 32.3382C60.84 32.7338 61.6865 32.9404 62.5458 32.9407C62.5458 32.9407 65.6998 33.237 74.0939 31.9531L75.4188 28.2595C75.4786 28.0887 75.4968 27.9061 75.4717 27.7269C75.4466 27.5477 75.379 27.3771 75.2745 27.2292C75.1701 27.0814 75.0317 26.9606 74.8711 26.877C74.7104 26.7934 74.5321 26.7493 74.351 26.7485H66.9159C66.7127 26.7492 66.5124 26.701 66.3319 26.6081C66.1513 26.5151 65.9958 26.3802 65.8785 26.2145C65.7611 26.0489 65.6854 25.8575 65.6578 25.6565C65.6301 25.4555 65.6513 25.2508 65.7195 25.0597L73.8072 2.56216C73.867 2.39137 73.8852 2.20877 73.8601 2.02956C73.835 1.85036 73.7674 1.67973 73.6629 1.5319C73.5585 1.38407 73.4201 1.26331 73.2595 1.17968C73.0988 1.09606 72.9205 1.05198 72.7394 1.05113Z" fill="#43A631"/>
<path d="M98.3469 1.05113C101.4 0.972604 104.454 1.1311 107.483 1.52518C107.651 1.53992 107.814 1.59206 107.96 1.67779C108.106 1.76353 108.231 1.88069 108.326 2.02074C108.42 2.16079 108.482 2.32019 108.508 2.48733C108.533 2.65446 108.52 2.82511 108.471 2.98683L107.137 7.27301H98.3568C97.4617 7.27444 96.5887 7.55101 95.8564 8.06516C95.1241 8.57931 94.568 9.30613 94.2635 10.1469L92.7706 14.3442H103.043C103.216 14.3525 103.385 14.4005 103.537 14.4845C103.688 14.5685 103.818 14.6862 103.917 14.8286C104.015 14.9709 104.079 15.134 104.105 15.3052C104.13 15.4764 104.115 15.6511 104.062 15.8157L102.381 20.497H90.5163L88.8652 25.0399C88.7974 25.2316 88.7764 25.4367 88.8041 25.6381C88.8318 25.8395 88.9074 26.0314 89.0245 26.1976C89.1416 26.3639 89.2969 26.4998 89.4773 26.5939C89.6577 26.688 89.858 26.7376 90.0615 26.7386H98.5249C98.7068 26.7372 98.8864 26.7798 99.0483 26.8628C99.2101 26.9458 99.3495 27.0667 99.4544 27.2152C99.5593 27.3636 99.6267 27.5353 99.6508 27.7154C99.6749 27.8956 99.6549 28.0788 99.5927 28.2496L98.2876 31.8939C94.1382 32.6895 89.9152 33.0372 85.6914 32.9308C84.8322 32.9306 83.9856 32.7239 83.2231 32.3283C82.4606 31.9327 81.8045 31.3598 81.3101 30.6578C80.8158 29.9558 80.4977 29.1454 80.3826 28.2948C80.2675 27.4443 80.3589 26.5786 80.649 25.7707L86.5813 9.32721C87.4556 6.9087 89.0535 4.81735 91.1582 3.33685C93.263 1.85635 95.7727 1.05836 98.3469 1.05113Z" fill="#43A631"/>
<path d="M165.431 8.08284L167.171 3.25348C167.227 3.09173 167.246 2.91954 167.226 2.74956C167.207 2.57959 167.149 2.41613 167.058 2.27121C166.967 2.12628 166.845 2.00356 166.7 1.91206C166.555 1.82056 166.392 1.76261 166.222 1.74245C157.165 0.833861 154.357 1.05113 154.357 1.05113C151.431 1.05252 148.577 1.95637 146.184 3.63918C143.792 5.32199 141.978 7.70168 140.99 10.4531L136.61 22.6302C136.198 23.7916 136.072 25.0352 136.244 26.2555C136.416 27.4757 136.88 28.6364 137.598 29.639C138.315 30.6415 139.264 31.4562 140.364 32.0139C141.464 32.5715 142.683 32.8556 143.916 32.8419C143.916 32.8419 147.268 33.1679 156.523 31.9926L161.713 17.6132C161.775 17.4424 161.795 17.2591 161.771 17.079C161.747 16.8988 161.68 16.7272 161.575 16.5787C161.47 16.4302 161.331 16.3093 161.169 16.2263C161.007 16.1434 160.827 16.1007 160.645 16.1021H154.298L150.462 26.7682H147.674C147.156 26.7667 146.647 26.6413 146.188 26.4023C145.729 26.1634 145.335 25.818 145.037 25.3952C144.74 24.9724 144.549 24.4844 144.479 23.9724C144.41 23.4603 144.464 22.939 144.638 22.4524L147.98 14.0084C148.594 12.2747 149.731 10.7738 151.234 9.71254C152.737 8.65127 154.533 8.08187 156.374 8.08284H165.431Z" fill="#43A631"/>
<path d="M171.818 1.05113H178.739C179.015 1.04904 179.283 1.1485 179.491 1.33059C179.698 1.51267 179.832 1.7647 179.866 2.03873L180.855 13.4258L190.524 1.05113H196.189C196.401 1.04923 196.609 1.10701 196.79 1.21786C196.97 1.32871 197.116 1.48813 197.21 1.67784C197.304 1.86755 197.342 2.07986 197.321 2.29043C197.3 2.50099 197.219 2.70128 197.089 2.86832L185.047 18.6699C184.798 18.9833 184.481 19.2354 184.119 19.4066C183.757 19.5779 183.361 19.6637 182.961 19.6575L178.185 32.9407H171.838C171.656 32.9421 171.476 32.8995 171.314 32.8165C171.152 32.7335 171.013 32.6126 170.908 32.4641C170.803 32.3157 170.736 32.144 170.712 31.9639C170.688 31.7837 170.708 31.6005 170.77 31.4297L175.011 19.6575C174.608 19.6592 174.219 19.5101 173.921 19.2395C173.623 18.969 173.437 18.5966 173.4 18.1959L171.818 1.05113Z" fill="#43A631"/>
<path d="M208.43 1.07089H202.636L191.74 31.4297C191.678 31.6005 191.658 31.7837 191.682 31.9639C191.706 32.144 191.774 32.3157 191.879 32.4641C191.984 32.6126 192.123 32.7335 192.285 32.8165C192.447 32.8995 192.626 32.9421 192.808 32.9407H199.136L205.661 14.68L207.184 21.3364C207.236 21.5882 207.374 21.8142 207.574 21.9761C207.774 22.1381 208.024 22.2261 208.281 22.2253H213.027L219.325 15.3121L213.571 31.4297C213.508 31.6028 213.488 31.7889 213.514 31.9714C213.539 32.154 213.609 32.3275 213.718 32.4766C213.826 32.6258 213.969 32.7462 214.135 32.8271C214.301 32.908 214.484 32.947 214.668 32.9407H220.947L231.773 2.56216C231.835 2.39217 231.855 2.20978 231.832 2.03041C231.808 1.85105 231.741 1.68001 231.638 1.53176C231.534 1.38351 231.396 1.26243 231.235 1.17877C231.075 1.09511 230.896 1.05133 230.715 1.05113H224.318L212.305 14.2553L209.527 1.94985C209.473 1.6999 209.334 1.47619 209.134 1.31618C208.935 1.15618 208.686 1.06958 208.43 1.07089Z" fill="#43A631"/>
<path d="M294.744 1.07089H301.091C301.274 1.07118 301.453 1.11527 301.615 1.19944C301.777 1.28361 301.916 1.40539 302.021 1.55451C302.125 1.70363 302.192 1.87571 302.217 2.05624C302.241 2.23677 302.221 2.42045 302.159 2.59179L298.125 13.8405L311.453 1.07089H317.82C318.054 1.05999 318.286 1.12217 318.483 1.24879C318.68 1.3754 318.832 1.56017 318.919 1.77739C319.006 1.99462 319.023 2.23352 318.968 2.46089C318.913 2.68825 318.788 2.8928 318.611 3.04608L303.781 17.465L307.805 32.9901H300.083C299.831 32.9912 299.587 32.9081 299.388 32.7542C299.189 32.6003 299.047 32.3844 298.986 32.1408L295.881 20.1612L291.274 33H284.926C284.744 33.0014 284.565 32.9588 284.403 32.8758C284.241 32.7928 284.101 32.6719 283.997 32.5234C283.892 32.3749 283.824 32.2033 283.8 32.0231C283.776 31.843 283.796 31.6597 283.858 31.4889L294.744 1.07089Z" fill="#43A631"/>
</svg>
