<svg width="50" height="67" viewBox="0 0 50 67" fill="none" xmlns="http://www.w3.org/2000/svg">
<ellipse cx="25" cy="64" rx="18" ry="3" fill="#090F14" fill-opacity="0.5"/>
<path fill-rule="evenodd" clip-rule="evenodd" d="M45.8014 40.4508C44.1442 42.0199 42.289 43.6201 40.3463 45.1035C37.9345 46.9448 35.3349 48.6475 32.7561 49.8979C30.2018 51.1357 27.5255 52 25 52C22.4746 52 19.7983 51.1357 17.244 49.8979C14.665 48.6475 12.0655 46.9448 9.65366 45.1035C7.71096 43.6201 5.8557 42.0198 4.19845 40.4507C11.3193 54.0587 25 64 25 64C25 64 38.6805 54.0588 45.8014 40.4508ZM49.9564 23.5111L48.4186 24.8052C46.0587 26.791 42.9123 27.481 39.8755 26.9419C39.9576 26.3062 40 25.6582 40 25C40 16.7158 33.2843 10 25 10C16.7157 10 9.99998 16.7158 9.99998 25C9.99998 25.6582 10.0423 26.3062 10.1245 26.9419C7.08762 27.481 3.94126 26.791 1.5814 24.8052L0.0435791 23.5111C0.813832 10.3971 11.6927 0 25 0C38.3072 0 49.1861 10.3971 49.9564 23.5111Z" fill="white"/>
<path d="M49.8559 33.0284C49.9505 32.1014 50 31.1677 50 30.2287C50 28.9047 49.8997 27.6045 49.7063 26.3353C44.3243 30.8643 35.8637 29.7207 31.1966 24C30.7463 23.448 30.3505 22.9511 29.9951 22.5049C27.8942 19.8673 27.2034 19 24.9999 19C22.7965 19 22.1058 19.8672 20.0052 22.5046C19.6497 22.9509 19.2538 23.4479 18.8034 24C14.1363 29.7207 5.67569 30.8643 0.293733 26.3353C0.100338 27.6045 0 28.9047 0 30.2287C0 31.1677 0.0495177 32.1014 0.144146 33.0284C3.9922 38.3604 16.6063 50 25.0001 50C33.3938 50 46.0078 38.3604 49.8559 33.0284Z" fill="#43A631"/>
</svg>
